<svg xmlns="http://www.w3.org/2000/svg">
  <symbol id="3a5c87" viewBox="0 0 20 20">
    <path fill-rule="evenodd" d="M4.75 3.25A2.75 2.75 0 0 0 2 6v8a2.75 2.75 0 0 0 2.75 2.75h6.25c.41 0 .75-.34.75-.75s-.34-.75-.75-.75H4.75A1.25 1.25 0 0 1 3.5 14V6c0-.69.56-1.25 1.25-1.25h10.5c.69 0 1.25.56 1.25 1.25v3.65c0 .41.34.75.75.75s.75-.34.75-.75V6a2.75 2.75 0 0 0-2.75-2.75H4.75Zm2 3.5A.75.75 0 0 0 6 7.5c0 .41.34.75.75.75h6.5c.41 0 .75-.34.75-.75a.75.75 0 0 0-.75-.75h-6.5Zm0 3A.75.75 0 0 0 6 10.5c0 .41.34.75.75.75h3.75c.41 0 .75-.34.75-.75a.75.75 0 0 0-.75-.75H6.75Z" clip-rule="evenodd"/>
    <path d="M15.88 11.08a1.47 1.47 0 0 1 2.08 2.08l-3.62 3.62a1.8 1.8 0 0 1-.77.45l-1.76.5a.55.55 0 0 1-.68-.68l.5-1.76c.09-.29.24-.56.45-.77l3.8-3.44Z"/>
  </symbol>
</svg>
